<svg xmlns="http://www.w3.org/2000/svg" width="41" height="34" viewBox="0 0 41 34">
  <g>
    <path fill="rgb(242,245,247)" fill-rule="evenodd" d="M4 0h33c2.2076601 0 4 1.7923399 4 4v26c0 2.2076601-1.7923399 4-4 4H4c-2.2076601 0-4-1.7923399-4-4V4c0-2.2076601 1.7923399-4 4-4z"/>
    <path fill="rgb(66,75,90)" fill-rule="evenodd" d="M38.58823395 0H2.41176462C1.0797838 0 0 1.0873084 0 2.42857146V31.5714283C0 32.91269302 1.0797838 34 2.41176462 34h36.17646933C39.9202156 34 41 32.91269302 41 31.5714283V2.42857146C41 1.08730841 39.9202156 0 38.58823395 0zM2.41176462 31.5714283V2.42857146h36.17647314V31.5714283H2.41176462z"/>
    <path fill="rgb(66,75,90)" fill-rule="evenodd" d="M6.63235283 10.0178566c0 2.51486873 2.02459526 4.5535717 4.52205849 4.5535717 2.49746513 0 4.52205944-2.03870297 4.52205944-4.5535717 0-2.5148673-2.02459431-4.55357075-4.52205944-4.55357075-2.49746323 0-4.5220585 2.03870344-4.5220585 4.55357075zm6.63235283 0c0 1.17360592-.94481087 2.125-2.11029339 2.125-1.16548348 0-2.11029434-.95139408-2.11029434-2.125 0-1.17360497.94481086-2.12499953 2.11029434-2.12499953 1.16548252 0 2.11029339.95139456 2.11029339 2.12499953z"/>
    <path fill="rgb(66,75,90)" fill-rule="evenodd" d="M8.68722944 28.79090424c-.4729574.47215402-1.23647274.46883092-1.70535925-.00742233-.46888652-.47625326-.46558643-1.24508927.00737096-1.71724329l9.91799284-9.90114604 5.59004525 4.8961145c.5025012.44012226.55553844 1.20710828.118462 1.71311122-.43707643.50600294-1.19875459.55940979-1.70125578.11928752l-3.89997155-3.41584126-8.32728447 8.31313968z"/>
    <path fill="rgb(66,75,90)" fill-rule="evenodd" d="M17.73507854 28.78716282c-.47090536.4742292-1.23442783.47426348-1.70537518.00007655-.47094734-.47418693-.47098138-1.24303012-.00007602-1.71725933L31.900648 11.08693505l8.68879632 7.67695238c.50060514.44230775.55034592 1.2095177.11109913 1.71361138-.43924679.50409369-1.20114732.55418109-1.70175247.11187335l-6.99036188-6.17630721-14.27335056 14.37409787z"/>
  </g>
</svg>
