<svg xmlns="http://www.w3.org/2000/svg" xmlns:xlink="http://www.w3.org/1999/xlink" width="757" height="538" viewBox="0 0 757 538">
  <defs>
    <rect id="rect-1" width="757" height="538" x="0" y="0" rx="0" ry="0"/>
    <mask id="mask-2" maskContentUnits="userSpaceOnUse" maskUnits="userSpaceOnUse">
      <rect width="757" height="538" x="0" y="0" fill="black"/>
      <use fill="white" xlink:href="#rect-1"/>
    </mask>
  </defs>
  <g>
    <use fill="none" xlink:href="#rect-1"/>
    <g mask="url(#mask-2)">
      <path fill="rgb(194,209,217)" fill-rule="evenodd" d="M297.52813745 193c43.01275634 0 78-34.98725128 78-77.98599243 0-43.02675629-34.98724366-78.01400757-78-78.01400757-43.01275635 0-78 34.98725128-78 78s34.98724365 78 78 78zm0-127.98778915c27.56402587 0 49.98779296 22.43777847 49.98779296 49.98778915 0 27.55000305-22.42376709 49.98779297-49.98779296 49.98779297-27.56402588 0-49.98779297-22.42378235-49.98779297-49.9737854 0-27.55001068 22.42376709-50.00179672 49.98779297-50.00179672zM12.17657113 568.65234375c-2.65189361 2.33081055-5.94582748 3.47528076-9.21184444 3.47528076-3.86618424 0-7.7184105-1.59112549-10.48196411-4.73138428-5.09442962-5.79211425-4.53613592-14.61291503 1.25616073-19.70724487L414.77914453 161.4442978c5.5270996-4.85701752 13.87359619-4.59183502 19.09362793.61410523l66.1996765 66.19783782L636.77063013 78.53997803c2.49841309-2.73556137 5.98773193-4.36852646 9.68640137-4.53601074 3.67077637-.08374024 7.31365967 1.15842819 10.0493164 3.65672302l167.48809815 153.52651977c5.69458008 5.20594788 6.07141113 14.0406952.86535644 19.72117615-5.20611572 5.68048096-14.04107666 6.0712738-19.72174072.86532593L647.96441674 107.69606018 519.82208276 248.01930237l67.09295654 67.09107971c5.45733643 5.45718384 5.45733643 14.27798462 0 19.73513794-5.45733642 5.45718384-14.27838135 5.45718384-19.73571777 0L423.39080834 191.07492065l-411.2142372 377.5774231z"/>
    </g>
  </g>
</svg>
